<svg width="24" height="24" viewBox="0 0 24 24" fill="none" xmlns="http://www.w3.org/2000/svg">
    <rect width="24" height="24" rx="12" fill="#17123B" />
    <path d="M15.334 8.00001H14.0007V6.00001C14.0007 5.63334 13.7007 5.33334 13.334 5.33334H10.6673C10.3007 5.33334 10.0007 5.63334 10.0007 6.00001V8.00001H8.66732C7.93398 8.00001 7.33398 8.60001 7.33398 9.33334V16.6667C7.33398 17.4 7.93398 18 8.66732 18C8.66732 18.3667 8.96732 18.6667 9.33398 18.6667C9.70065 18.6667 10.0007 18.3667 10.0007 18H14.0007C14.0007 18.3667 14.3007 18.6667 14.6673 18.6667C15.034 18.6667 15.334 18.3667 15.334 18C16.0673 18 16.6673 17.4 16.6673 16.6667V9.33334C16.6673 8.60001 16.0673 8.00001 15.334 8.00001ZM9.83398 16C9.56065 16 9.33398 15.7733 9.33398 15.5V10.5C9.33398 10.2267 9.56065 10 9.83398 10C10.1073 10 10.334 10.2267 10.334 10.5V15.5C10.334 15.7733 10.1073 16 9.83398 16ZM12.0007 16C11.7273 16 11.5007 15.7733 11.5007 15.5V10.5C11.5007 10.2267 11.7273 10 12.0007 10C12.274 10 12.5007 10.2267 12.5007 10.5V15.5C12.5007 15.7733 12.274 16 12.0007 16ZM13.0007 8.00001H11.0007V6.33334H13.0007V8.00001ZM14.1673 16C13.894 16 13.6673 15.7733 13.6673 15.5V10.5C13.6673 10.2267 13.894 10 14.1673 10C14.4407 10 14.6673 10.2267 14.6673 10.5V15.5C14.6673 15.7733 14.4407 16 14.1673 16Z" fill="#D1D0D8" />
</svg>
    