<svg width="18" height="18" viewBox="0 0 18 18" fill="none" xmlns="http://www.w3.org/2000/svg">
<path d="M1.66536 4.00002C1.20703 4.00002 0.832031 4.37502 0.832031 4.83335V15.6667C0.832031 16.5834 1.58203 17.3334 2.4987 17.3334H13.332C13.7904 17.3334 14.1654 16.9584 14.1654 16.5C14.1654 16.0417 13.7904 15.6667 13.332 15.6667H3.33203C2.8737 15.6667 2.4987 15.2917 2.4987 14.8334V4.83335C2.4987 4.37502 2.1237 4.00002 1.66536 4.00002ZM15.832 0.666687H5.83203C4.91536 0.666687 4.16536 1.41669 4.16536 2.33335V12.3334C4.16536 13.25 4.91536 14 5.83203 14H15.832C16.7487 14 17.4987 13.25 17.4987 12.3334V2.33335C17.4987 1.41669 16.7487 0.666687 15.832 0.666687ZM14.1654 8.16669H7.4987C7.04036 8.16669 6.66536 7.79169 6.66536 7.33335C6.66536 6.87502 7.04036 6.50002 7.4987 6.50002H14.1654C14.6237 6.50002 14.9987 6.87502 14.9987 7.33335C14.9987 7.79169 14.6237 8.16669 14.1654 8.16669ZM10.832 11.5H7.4987C7.04036 11.5 6.66536 11.125 6.66536 10.6667C6.66536 10.2084 7.04036 9.83335 7.4987 9.83335H10.832C11.2904 9.83335 11.6654 10.2084 11.6654 10.6667C11.6654 11.125 11.2904 11.5 10.832 11.5ZM14.1654 4.83335H7.4987C7.04036 4.83335 6.66536 4.45835 6.66536 4.00002C6.66536 3.54169 7.04036 3.16669 7.4987 3.16669H14.1654C14.6237 3.16669 14.9987 3.54169 14.9987 4.00002C14.9987 4.45835 14.6237 4.83335 14.1654 4.83335Z" fill="#BDBDBD"/>
</svg>
