<svg width="194" height="94" viewBox="0 0 194 94" fill="none" xmlns="http://www.w3.org/2000/svg">
<path d="M21.3152 35.542H10.1922V32.7H35.9662V35.542H24.8432V67H21.3152V35.542ZM50.6122 43.431C51.8209 43.431 52.8825 43.725 53.7972 44.313L52.9152 47.302C51.9679 46.7467 50.9225 46.469 49.7792 46.469C48.1785 46.469 46.7739 47.2203 45.5652 48.723C44.3565 50.2257 43.4909 52.3 42.9682 54.946V67H39.6852V48.135C39.6852 47.547 39.5709 47.0733 39.3422 46.714C39.1462 46.322 38.7542 45.881 38.1662 45.391L40.3712 43.431C41.3512 43.9863 42.0209 44.6233 42.3802 45.342C42.7722 46.028 42.9682 46.9917 42.9682 48.233V49.507C43.7195 47.5797 44.7485 46.0933 46.0552 45.048C47.3945 43.97 48.9135 43.431 50.6122 43.431ZM75.0827 62.835C75.0827 63.423 75.1807 63.913 75.3767 64.305C75.6054 64.6643 76.0137 65.089 76.6017 65.579L74.3967 67.539C73.58 67.0817 72.9757 66.559 72.5837 65.971C72.1917 65.383 71.963 64.6153 71.8977 63.668C71.0484 64.9093 69.8887 65.873 68.4187 66.559C66.9487 67.2123 65.299 67.539 63.4697 67.539C60.987 67.539 59.076 66.9673 57.7367 65.824C56.3974 64.648 55.7277 62.9657 55.7277 60.777C55.7277 58.7517 56.43 57.1673 57.8347 56.024C59.2394 54.8807 61.3627 54.1457 64.2047 53.819L68.0267 53.378C69.1047 53.2473 69.905 53.084 70.4277 52.888C70.983 52.692 71.3587 52.4143 71.5547 52.055C71.7507 51.663 71.8324 51.124 71.7997 50.438C71.5057 47.4 69.3824 45.881 65.4297 45.881C63.9597 45.881 62.702 46.126 61.6567 46.616C60.6114 47.0733 59.713 47.8083 58.9617 48.821L56.7077 47.155C58.243 44.6723 61.1504 43.431 65.4297 43.431C68.5657 43.431 70.9504 44.1007 72.5837 45.44C74.2497 46.7793 75.0827 48.7067 75.0827 51.222V62.835ZM64.2047 64.991C66.4914 64.991 68.337 64.403 69.7417 63.227C71.1464 62.051 71.8487 60.4993 71.8487 58.572V54.603C71.4567 54.897 70.983 55.1257 70.4277 55.289C69.8724 55.4197 69.1047 55.534 68.1247 55.632L64.4987 56.024C62.6367 56.2527 61.2157 56.7753 60.2357 57.592C59.2884 58.376 58.8147 59.4213 58.8147 60.728C58.8147 63.57 60.6114 64.991 64.2047 64.991ZM89.9079 67.539C88.6666 67.539 87.6866 67.147 86.9679 66.363C86.2492 65.579 85.5959 64.207 85.0079 62.247L79.4219 43.97H82.6069L88.0459 62.051C88.4052 63.2597 88.6992 64.0437 88.9279 64.403C89.1566 64.7297 89.4669 64.893 89.8589 64.893C90.2836 64.893 90.6102 64.7133 90.8389 64.354C91.0676 63.9947 91.3616 63.227 91.7209 62.051L97.1599 43.97H100.345L94.8079 62.247C94.2199 64.207 93.5666 65.579 92.8479 66.363C92.1292 67.147 91.1492 67.539 89.9079 67.539ZM122.886 62.835C122.886 63.423 122.984 63.913 123.18 64.305C123.409 64.6643 123.817 65.089 124.405 65.579L122.2 67.539C121.384 67.0817 120.779 66.559 120.387 65.971C119.995 65.383 119.767 64.6153 119.701 63.668C118.852 64.9093 117.692 65.873 116.222 66.559C114.752 67.2123 113.103 67.539 111.273 67.539C108.791 67.539 106.88 66.9673 105.54 65.824C104.201 64.648 103.531 62.9657 103.531 60.777C103.531 58.7517 104.234 57.1673 105.638 56.024C107.043 54.8807 109.166 54.1457 112.008 53.819L115.83 53.378C116.908 53.2473 117.709 53.084 118.231 52.888C118.787 52.692 119.162 52.4143 119.358 52.055C119.554 51.663 119.636 51.124 119.603 50.438C119.309 47.4 117.186 45.881 113.233 45.881C111.763 45.881 110.506 46.126 109.46 46.616C108.415 47.0733 107.517 47.8083 106.765 48.821L104.511 47.155C106.047 44.6723 108.954 43.431 113.233 43.431C116.369 43.431 118.754 44.1007 120.387 45.44C122.053 46.7793 122.886 48.7067 122.886 51.222V62.835ZM112.008 64.991C114.295 64.991 116.141 64.403 117.545 63.227C118.95 62.051 119.652 60.4993 119.652 58.572V54.603C119.26 54.897 118.787 55.1257 118.231 55.289C117.676 55.4197 116.908 55.534 115.928 55.632L112.302 56.024C110.44 56.2527 109.019 56.7753 108.039 57.592C107.092 58.376 106.618 59.4213 106.618 60.728C106.618 63.57 108.415 64.991 112.008 64.991Z" fill="#FFFDFD"/>
<path d="M148.167 41.2222C151.582 45.5823 160.698 51.6863 169.833 41.2222" stroke="#F9D100" stroke-width="2.5"/>
<line x1="133.722" y1="29.8611" x2="179.944" y2="29.8611" stroke="#F9D100" stroke-width="2.5"/>
<line x1="134.972" y1="31.1111" x2="134.972" y2="84.5555" stroke="#F9D100" stroke-width="2.5"/>
<line x1="133.722" y1="84.75" x2="184.278" y2="84.75" stroke="#F9D100" stroke-width="2.5"/>
<path d="M185.162 7.11612C184.674 6.62796 183.882 6.62796 183.394 7.11612L175.439 15.0711C174.951 15.5592 174.951 16.3507 175.439 16.8388C175.927 17.327 176.719 17.327 177.207 16.8388L184.278 9.76777L191.349 16.8388C191.837 17.327 192.629 17.327 193.117 16.8388C193.605 16.3507 193.605 15.5592 193.117 15.0711L185.162 7.11612ZM185.528 86L185.528 8L183.028 8L183.028 86L185.528 86Z" fill="#F9D100"/>
</svg>
