<svg width="14" height="11" viewBox="0 0 14 11" fill="none" xmlns="http://www.w3.org/2000/svg">
    <path d="M11 5.50001C11 5.86668 11.3 6.16668 11.6667 6.16668H13C13.3667 6.16668 13.6667 5.86668 13.6667 5.50001C13.6667 5.13334 13.3667 4.83334 13 4.83334H11.6667C11.3 4.83334 11 5.13334 11 5.50001Z" fill="#D1D0D8" />
    <path d="M10.0599 8.71332C9.83987 9.00666 9.89987 9.41332 10.1932 9.62666C10.5465 9.88666 10.9199 10.1667 11.2732 10.4333C11.5665 10.6533 11.9799 10.5933 12.1932 10.3C12.1932 10.2933 12.1999 10.2933 12.1999 10.2867C12.4199 9.99332 12.3599 9.57999 12.0665 9.36665C11.7132 9.09999 11.3399 8.81999 10.9932 8.55999C10.6999 8.33999 10.2865 8.40666 10.0665 8.69999C10.0665 8.70665 10.0599 8.71332 10.0599 8.71332Z" fill="#D1D0D8" />
    <path d="M12.2069 0.706656C12.2069 0.699989 12.2002 0.699989 12.2002 0.693323C11.9802 0.399989 11.5669 0.339989 11.2802 0.559989C10.9269 0.826656 10.5469 1.10666 10.2002 1.37332C9.90687 1.59332 9.85354 2.00666 10.0735 2.29332C10.0735 2.29999 10.0802 2.29999 10.0802 2.30666C10.3002 2.59999 10.7069 2.65999 11.0002 2.43999C11.3535 2.17999 11.7269 1.89332 12.0802 1.62666C12.3669 1.41332 12.4202 0.999989 12.2069 0.706656Z" fill="#D1D0D8" />
    <path d="M4.3335 3.5H1.66683C0.933496 3.5 0.333496 4.1 0.333496 4.83333V6.16667C0.333496 6.9 0.933496 7.5 1.66683 7.5H2.3335V9.5C2.3335 9.86667 2.6335 10.1667 3.00016 10.1667C3.36683 10.1667 3.66683 9.86667 3.66683 9.5V7.5H4.3335L7.66683 9.5V1.5L4.3335 3.5Z" fill="#D1D0D8" />
    <path d="M9.3335 5.5C9.3335 4.61333 8.94683 3.81333 8.3335 3.26666V7.72666C8.94683 7.18666 9.3335 6.38666 9.3335 5.5Z" fill="#D1D0D8" />
</svg>
    