<svg width="24" height="25" viewBox="0 0 24 25" fill="none" xmlns="http://www.w3.org/2000/svg">
<rect y="0.5" width="24" height="24" rx="12" fill="#17123B"/>
<path d="M16 12.5C16 12.8667 16.3 13.1667 16.6667 13.1667H18C18.3667 13.1667 18.6667 12.8667 18.6667 12.5C18.6667 12.1333 18.3667 11.8333 18 11.8333H16.6667C16.3 11.8333 16 12.1333 16 12.5Z" fill="#D1D0D8"/>
<path d="M15.0599 15.7133C14.8399 16.0067 14.8999 16.4133 15.1932 16.6267C15.5465 16.8867 15.9199 17.1667 16.2732 17.4333C16.5665 17.6533 16.9799 17.5933 17.1932 17.3C17.1932 17.2933 17.1999 17.2933 17.1999 17.2867C17.4199 16.9933 17.3599 16.58 17.0665 16.3667C16.7132 16.1 16.3399 15.82 15.9932 15.56C15.6999 15.34 15.2865 15.4067 15.0665 15.7C15.0665 15.7067 15.0599 15.7133 15.0599 15.7133Z" fill="#D1D0D8"/>
<path d="M17.2069 7.70666C17.2069 7.69999 17.2002 7.69999 17.2002 7.69332C16.9802 7.39999 16.5669 7.33999 16.2802 7.55999C15.9269 7.82666 15.5469 8.10666 15.2002 8.37332C14.9069 8.59332 14.8535 9.00666 15.0735 9.29332C15.0735 9.29999 15.0802 9.29999 15.0802 9.30666C15.3002 9.59999 15.7069 9.65999 16.0002 9.43999C16.3535 9.17999 16.7269 8.89332 17.0802 8.62666C17.3669 8.41332 17.4202 7.99999 17.2069 7.70666Z" fill="#D1D0D8"/>
<path d="M9.3335 10.5H6.66683C5.9335 10.5 5.3335 11.1 5.3335 11.8333V13.1667C5.3335 13.9 5.9335 14.5 6.66683 14.5H7.3335V16.5C7.3335 16.8667 7.6335 17.1667 8.00016 17.1667C8.36683 17.1667 8.66683 16.8667 8.66683 16.5V14.5H9.3335L12.6668 16.5V8.5L9.3335 10.5Z" fill="#D1D0D8"/>
<path d="M14.3335 12.5C14.3335 11.6133 13.9468 10.8133 13.3335 10.2667V14.7267C13.9468 14.1867 14.3335 13.3867 14.3335 12.5Z" fill="#D1D0D8"/>
</svg>
