<svg width="16" height="16" viewBox="0 0 16 16" fill="none" xmlns="http://www.w3.org/2000/svg">
<path d="M5.83333 11.3333V4.66667C5.83333 3.75 6.575 3 7.5 3H15V2.16667C15 1.25 14.25 0.5 13.3333 0.5H1.66667C0.741667 0.5 0 1.25 0 2.16667V13.8333C0 14.75 0.741667 15.5 1.66667 15.5H13.3333C14.25 15.5 15 14.75 15 13.8333V13H7.5C6.575 13 5.83333 12.25 5.83333 11.3333ZM8.33333 4.66667C7.875 4.66667 7.5 5.04167 7.5 5.5V10.5C7.5 10.9583 7.875 11.3333 8.33333 11.3333H15.8333V4.66667H8.33333ZM10.8333 9.25C10.1417 9.25 9.58333 8.69167 9.58333 8C9.58333 7.30833 10.1417 6.75 10.8333 6.75C11.525 6.75 12.0833 7.30833 12.0833 8C12.0833 8.69167 11.525 9.25 10.8333 9.25Z" fill="#BDBDBD"/>
</svg>
